<mxfile host="65bd71144e">
    <diagram id="5_fz73BOltJIErhwyu7Y" name="Page-1">
        <mxGraphModel dx="976" dy="647" grid="0" gridSize="10" guides="1" tooltips="1" connect="1" arrows="1" fold="1" page="1" pageScale="1" pageWidth="827" pageHeight="1169" background="#ffffff" math="0" shadow="0">
            <root>
                <mxCell id="0"/>
                <mxCell id="1" parent="0"/>
                <mxCell id="8" value="" style="endArrow=none;dashed=1;html=1;strokeColor=#000000;exitX=0.488;exitY=0.942;exitDx=0;exitDy=0;exitPerimeter=0;" parent="1" source="10" edge="1">
                    <mxGeometry width="50" height="50" relative="1" as="geometry">
                        <mxPoint x="60" y="130" as="sourcePoint"/>
                        <mxPoint x="135" y="656" as="targetPoint"/>
                    </mxGeometry>
                </mxCell>
                <mxCell id="10" value="&lt;font style=&quot;font-size: 14px;&quot; color=&quot;#000000&quot;&gt;User&lt;/font&gt;" style="text;html=1;align=center;verticalAlign=middle;resizable=0;points=[];autosize=1;strokeColor=none;fillColor=none;" parent="1" vertex="1">
                    <mxGeometry x="112" y="91" width="48" height="29" as="geometry"/>
                </mxCell>
                <mxCell id="13" value="&lt;span style=&quot;font-size: 14px;&quot;&gt;&lt;font color=&quot;#000000&quot;&gt;Login()&lt;/font&gt;&lt;/span&gt;" style="text;html=1;align=center;verticalAlign=middle;resizable=0;points=[];autosize=1;strokeColor=none;fillColor=none;" parent="1" vertex="1">
                    <mxGeometry x="349.5" y="126" width="62" height="29" as="geometry"/>
                </mxCell>
                <mxCell id="39" value="" style="html=1;verticalAlign=bottom;endArrow=open;dashed=1;endSize=8;strokeColor=#000000;" parent="1" edge="1">
                    <mxGeometry relative="1" as="geometry">
                        <mxPoint x="643" y="220" as="sourcePoint"/>
                        <mxPoint x="135" y="220" as="targetPoint"/>
                    </mxGeometry>
                </mxCell>
                <mxCell id="41" value="&lt;font color=&quot;#000000&quot; style=&quot;font-size: 14px;&quot;&gt;Login successful&amp;nbsp;&lt;/font&gt;" style="text;html=1;align=center;verticalAlign=middle;resizable=0;points=[];autosize=1;strokeColor=none;fillColor=none;" parent="1" vertex="1">
                    <mxGeometry x="323" y="191" width="125" height="29" as="geometry"/>
                </mxCell>
                <mxCell id="42" value="&lt;font color=&quot;#000000&quot; style=&quot;font-size: 14px;&quot;&gt;Create flashcard()&lt;/font&gt;" style="text;html=1;align=center;verticalAlign=middle;resizable=0;points=[];autosize=1;strokeColor=none;fillColor=none;" parent="1" vertex="1">
                    <mxGeometry x="320" y="261" width="130" height="29" as="geometry"/>
                </mxCell>
                <mxCell id="46" value="" style="html=1;verticalAlign=bottom;endArrow=block;strokeColor=#000000;" parent="1" target="80" edge="1">
                    <mxGeometry width="80" relative="1" as="geometry">
                        <mxPoint x="137" y="155" as="sourcePoint"/>
                        <mxPoint x="642" y="155" as="targetPoint"/>
                    </mxGeometry>
                </mxCell>
                <mxCell id="52" value="&lt;font color=&quot;#000000&quot;&gt;Update flashcard()&lt;/font&gt;" style="text;html=1;align=center;verticalAlign=middle;resizable=0;points=[];autosize=1;strokeColor=none;fillColor=none;fontSize=14;" parent="1" vertex="1">
                    <mxGeometry x="315" y="392" width="133" height="29" as="geometry"/>
                </mxCell>
                <mxCell id="54" value="&lt;font color=&quot;#000000&quot;&gt;Flashcard updated successfully&amp;nbsp;&lt;/font&gt;" style="text;html=1;align=center;verticalAlign=middle;resizable=0;points=[];autosize=1;strokeColor=none;fillColor=none;fontSize=14;" parent="1" vertex="1">
                    <mxGeometry x="277" y="461" width="217" height="29" as="geometry"/>
                </mxCell>
                <mxCell id="45" value="&lt;font color=&quot;#000000&quot; style=&quot;font-size: 14px;&quot;&gt;Flashcard created successfully&amp;nbsp;&lt;/font&gt;" style="text;html=1;align=center;verticalAlign=middle;resizable=0;points=[];autosize=1;strokeColor=none;fillColor=none;" parent="1" vertex="1">
                    <mxGeometry x="274" y="325" width="213" height="29" as="geometry"/>
                </mxCell>
                <mxCell id="58" value="" style="html=1;verticalAlign=bottom;endArrow=open;dashed=1;endSize=8;fontSize=14;strokeColor=#000000;" parent="1" edge="1">
                    <mxGeometry relative="1" as="geometry">
                        <mxPoint x="642" y="356" as="sourcePoint"/>
                        <mxPoint x="136" y="356" as="targetPoint"/>
                    </mxGeometry>
                </mxCell>
                <mxCell id="60" value="" style="html=1;verticalAlign=bottom;endArrow=block;fontSize=14;strokeColor=#000000;" parent="1" target="80" edge="1">
                    <mxGeometry x="0.088" y="18" width="80" relative="1" as="geometry">
                        <mxPoint x="136" y="560" as="sourcePoint"/>
                        <mxPoint x="640" y="560" as="targetPoint"/>
                        <mxPoint as="offset"/>
                    </mxGeometry>
                </mxCell>
                <mxCell id="62" value="" style="html=1;verticalAlign=bottom;endArrow=block;labelBackgroundColor=#FFFFFF;strokeColor=#000000;fontColor=#000000;" parent="1" target="80" edge="1">
                    <mxGeometry width="80" relative="1" as="geometry">
                        <mxPoint x="136" y="291" as="sourcePoint"/>
                        <mxPoint x="642" y="293" as="targetPoint"/>
                    </mxGeometry>
                </mxCell>
                <mxCell id="68" value="" style="html=1;verticalAlign=bottom;endArrow=block;labelBackgroundColor=#FFFFFF;strokeColor=#000000;fontColor=#000000;" parent="1" target="80" edge="1">
                    <mxGeometry width="80" relative="1" as="geometry">
                        <mxPoint x="136" y="426" as="sourcePoint"/>
                        <mxPoint x="642" y="428" as="targetPoint"/>
                    </mxGeometry>
                </mxCell>
                <mxCell id="73" value="" style="html=1;verticalAlign=bottom;endArrow=open;dashed=1;endSize=8;labelBackgroundColor=#FFFFFF;strokeColor=#000000;fontColor=#FFFFFF;" parent="1" edge="1">
                    <mxGeometry relative="1" as="geometry">
                        <mxPoint x="642" y="495" as="sourcePoint"/>
                        <mxPoint x="136" y="492" as="targetPoint"/>
                    </mxGeometry>
                </mxCell>
                <mxCell id="74" value="e" style="text;html=1;align=center;verticalAlign=middle;resizable=0;points=[];autosize=1;strokeColor=none;fillColor=none;fontColor=#FFFFFF;" parent="1" vertex="1">
                    <mxGeometry x="390" y="499" width="25" height="26" as="geometry"/>
                </mxCell>
                <mxCell id="75" value="&lt;font color=&quot;#000000&quot;&gt;&lt;font style=&quot;font-size: 14px;&quot;&gt;Delete flashcard()&lt;br&gt;&lt;/font&gt;&lt;br&gt;&lt;/font&gt;" style="text;html=1;align=center;verticalAlign=middle;resizable=0;points=[];autosize=1;strokeColor=none;fillColor=none;fontColor=#FFFFFF;" parent="1" vertex="1">
                    <mxGeometry x="318" y="530" width="128" height="43" as="geometry"/>
                </mxCell>
                <mxCell id="76" value="" style="html=1;verticalAlign=bottom;endArrow=open;dashed=1;endSize=8;labelBackgroundColor=#FFFFFF;strokeColor=#000000;fontSize=14;fontColor=#000000;" parent="1" edge="1">
                    <mxGeometry x="0.0097" y="-11" relative="1" as="geometry">
                        <mxPoint x="641" y="622" as="sourcePoint"/>
                        <mxPoint x="136" y="624" as="targetPoint"/>
                        <mxPoint as="offset"/>
                    </mxGeometry>
                </mxCell>
                <mxCell id="77" value="" style="shape=umlActor;verticalLabelPosition=bottom;verticalAlign=top;html=1;strokeColor=#000000;fontSize=14;fontColor=#000000;fillColor=#FFFFFF;gradientColor=none;" parent="1" vertex="1">
                    <mxGeometry x="120.5" y="35" width="33.5" height="59" as="geometry"/>
                </mxCell>
                <mxCell id="78" value="&lt;font style=&quot;font-size: 14px;&quot; color=&quot;#000000&quot;&gt;Flashcard deleted successfully&amp;nbsp;&lt;/font&gt;" style="text;html=1;align=center;verticalAlign=middle;resizable=0;points=[];autosize=1;strokeColor=none;fillColor=none;" parent="1" vertex="1">
                    <mxGeometry x="279" y="592" width="213" height="29" as="geometry"/>
                </mxCell>
                <mxCell id="80" value="System" style="shape=umlLifeline;perimeter=lifelinePerimeter;whiteSpace=wrap;html=1;container=1;collapsible=0;recursiveResize=0;outlineConnect=0;fontSize=14;fontColor=#000000;strokeColor=#000000;fillColor=#FFFFFF;" parent="1" vertex="1">
                    <mxGeometry x="594" y="53" width="100" height="602" as="geometry"/>
                </mxCell>
            </root>
        </mxGraphModel>
    </diagram>
</mxfile>